<?xml version="1.0" encoding="UTF-8"?>
<svg xmlns="http://www.w3.org/2000/svg" xmlns:xlink="http://www.w3.org/1999/xlink" width="3500px" height="3500px" viewBox="0 0 3500 3500" version="1.1">
<defs>
<clipPath id="clip1">
  <path d="M 1114.167969 1300.800781 L 2383.003906 1300.800781 L 2383.003906 1835.824219 L 1114.167969 1835.824219 Z M 1114.167969 1300.800781 "/>
</clipPath>
<clipPath id="clip2">
  <path d="M 1114.167969 1962.128906 L 2383.003906 1962.128906 L 2383.003906 2200.375 L 1114.167969 2200.375 Z M 1114.167969 1962.128906 "/>
</clipPath>
<clipPath id="clip3">
  <path d="M 1429 1023.367188 L 2675 1023.367188 L 2675 2477.8125 L 1429 2477.8125 Z M 1429 1023.367188 "/>
</clipPath>
<clipPath id="clip4">
  <path d="M 1396 1023.367188 L 2708 1023.367188 L 2708 2477.8125 L 1396 2477.8125 Z M 1396 1023.367188 "/>
</clipPath>
</defs>
<g id="surface1">
<rect x="0" y="0" width="3500" height="3500" style="fill:rgb(100%,100%,100%);fill-opacity:1;stroke:none;"/>
<g clip-path="url(#clip1)" clip-rule="nonzero">
<path style=" stroke:none;fill-rule:nonzero;fill:rgb(0%,50.196078%,100%);fill-opacity:1;" d="M 1509.296875 1826.007812 L 1493.753906 1826.007812 L 1492.9375 1814.554688 C 1492.390625 1803.101562 1488.027344 1797.375 1479.847656 1797.375 C 1475.484375 1797.375 1467.578125 1800.375 1456.125 1806.375 C 1420.671875 1826.007812 1384.949219 1835.824219 1348.957031 1835.824219 C 1280.238281 1835.824219 1223.953125 1812.101562 1180.105469 1764.652344 C 1136.144531 1717.203125 1114.167969 1651.867188 1114.167969 1568.640625 C 1114.167969 1485.523438 1135.875 1420.078125 1179.285156 1372.300781 C 1222.589844 1324.636719 1279.144531 1300.800781 1348.957031 1300.800781 C 1384.40625 1300.800781 1419.855469 1309.800781 1455.304688 1327.796875 C 1466.757812 1333.796875 1474.9375 1336.796875 1479.847656 1336.796875 C 1488.027344 1336.796875 1492.390625 1331.070312 1492.9375 1319.617188 L 1493.753906 1305.710938 L 1509.296875 1305.710938 L 1509.296875 1447.238281 L 1494.574219 1447.238281 C 1489.664062 1405.242188 1474.011719 1374.265625 1447.617188 1354.304688 C 1421.109375 1334.453125 1388.222656 1324.527344 1348.957031 1324.527344 C 1299.324219 1324.527344 1259.402344 1346.339844 1229.1875 1389.972656 C 1198.867188 1433.601562 1183.703125 1493.324219 1183.703125 1569.128906 C 1183.703125 1644.9375 1198.972656 1704.386719 1229.515625 1747.472656 C 1260.058594 1790.558594 1299.871094 1812.101562 1348.957031 1812.101562 C 1388.222656 1812.101562 1421.109375 1802.117188 1447.617188 1782.15625 C 1474.011719 1762.304688 1489.664062 1731.382812 1494.574219 1689.386719 L 1509.296875 1689.386719 Z M 1550.203125 1325.34375 L 1550.203125 1310.617188 L 1705.636719 1310.617188 L 1705.636719 1325.34375 L 1664.734375 1325.34375 L 1798.078125 1724.566406 L 1934.699219 1325.34375 L 1893.792969 1325.34375 L 1893.792969 1310.617188 L 2005.054688 1310.617188 L 2005.054688 1325.34375 L 1974.785156 1325.34375 C 1967.148438 1325.34375 1961.96875 1329.160156 1959.242188 1336.796875 L 1791.535156 1826.007812 L 1763.71875 1826.007812 L 1596.015625 1336.796875 C 1593.289062 1329.160156 1588.105469 1325.34375 1580.472656 1325.34375 Z M 2212.027344 1835.824219 C 2176.03125 1835.824219 2140.035156 1826.007812 2104.039062 1806.375 C 2092.042969 1800.375 2083.859375 1797.375 2079.496094 1797.375 C 2071.316406 1797.375 2066.953125 1803.101562 2066.410156 1814.554688 L 2065.589844 1826.007812 L 2050.046875 1826.007812 L 2050.046875 1689.386719 L 2064.773438 1689.386719 C 2069.679688 1731.382812 2085.332031 1762.304688 2111.730469 1782.15625 C 2138.234375 1802.117188 2169.59375 1812.101562 2205.808594 1812.101562 C 2242.132812 1812.101562 2269.671875 1802.28125 2288.433594 1782.648438 C 2307.304688 1763.015625 2316.738281 1739.835938 2316.738281 1713.113281 C 2316.738281 1670.574219 2292.199219 1638.394531 2243.113281 1616.578125 L 2145.761719 1573.222656 C 2116.3125 1560.132812 2094.222656 1542.242188 2079.496094 1519.554688 C 2064.773438 1496.976562 2057.410156 1472.597656 2057.410156 1446.417969 C 2057.410156 1406.605469 2070.773438 1372.355469 2097.496094 1343.667969 C 2124.21875 1315.089844 2162.667969 1300.800781 2212.84375 1300.800781 C 2242.296875 1300.800781 2272.5625 1310.617188 2303.652344 1330.253906 C 2314.011719 1336.25 2321.101562 1339.25 2324.921875 1339.25 C 2332.011719 1339.25 2335.828125 1333.523438 2336.375 1322.070312 L 2337.191406 1305.710938 L 2352.734375 1305.710938 L 2352.734375 1447.238281 L 2338.011719 1447.238281 C 2333.648438 1405.242188 2320.121094 1374.265625 2297.433594 1354.304688 C 2274.855469 1334.453125 2247.3125 1324.527344 2214.808594 1324.527344 C 2182.410156 1324.527344 2157.324219 1333.359375 2139.542969 1351.03125 C 2121.875 1368.8125 2113.039062 1388.992188 2113.039062 1411.570312 C 2113.039062 1434.257812 2119.148438 1454.601562 2131.363281 1472.597656 C 2143.691406 1490.59375 2161.851562 1504.777344 2185.847656 1515.136719 L 2284.015625 1558.496094 C 2316.738281 1573.222656 2341.390625 1592.417969 2357.972656 1616.089844 C 2374.660156 1639.867188 2383.003906 1665.390625 2383.003906 1692.660156 C 2383.003906 1731.382812 2367.460938 1764.925781 2336.375 1793.285156 C 2305.289062 1821.644531 2263.839844 1835.824219 2212.027344 1835.824219 Z M 2212.027344 1835.824219 "/>
</g>
<g clip-path="url(#clip2)" clip-rule="nonzero">
<path style=" stroke:none;fill-rule:nonzero;fill:rgb(0%,13.72549%,100%);fill-opacity:1;" d="M 1273.882812 2018.335938 C 1260.019531 2004.730469 1244.691406 1997.929688 1227.90625 1997.929688 C 1211.902344 1997.929688 1196.578125 2003.988281 1181.925781 2016.109375 C 1163.394531 2031.414062 1150.617188 2051.210938 1143.597656 2075.496094 C 1141.027344 2084.21875 1139.738281 2091.457031 1139.738281 2097.210938 C 1139.738281 2102.96875 1139.957031 2107.4375 1140.394531 2110.621094 C 1140.394531 2131.722656 1147.523438 2147.898438 1161.78125 2159.148438 C 1175.210938 2169.613281 1192.347656 2174.847656 1213.1875 2174.847656 C 1241.703125 2172.492188 1269.066406 2161.527344 1295.269531 2141.949219 C 1302.507812 2136.410156 1310.183594 2131.089844 1318.292969 2125.988281 C 1321.257812 2125.988281 1324.289062 2126.402344 1327.382812 2127.230469 C 1330.480469 2128.105469 1332.027344 2130.546875 1332.027344 2134.558594 C 1310.925781 2152.871094 1293.132812 2166.082031 1278.660156 2174.191406 C 1251.84375 2188.667969 1227.578125 2195.90625 1205.863281 2195.90625 C 1204.382812 2195.90625 1202.984375 2195.90625 1201.679688 2195.90625 C 1178.046875 2195.90625 1157.835938 2188.558594 1141.046875 2173.863281 C 1123.128906 2158.34375 1114.167969 2138.960938 1114.167969 2115.722656 C 1114.167969 2098.28125 1117.308594 2081.578125 1123.585938 2065.621094 C 1129.90625 2049.621094 1138.542969 2035.515625 1149.484375 2023.304688 C 1160.429688 2011.050781 1173.421875 2001.308594 1188.464844 1994.070312 C 1203.464844 1986.832031 1219.578125 1983.210938 1236.800781 1983.210938 C 1251.492188 1983.210938 1261.085938 1985.238281 1265.578125 1989.296875 C 1271.113281 1994.179688 1273.882812 2003.859375 1273.882812 2018.335938 Z M 1388.210938 2105.519531 C 1387.554688 2112.753906 1387.230469 2123.023438 1387.230469 2136.324219 C 1387.230469 2149.621094 1389.257812 2165.753906 1393.3125 2184.722656 L 1368.066406 2197.476562 L 1356.554688 2110.621094 C 1349.140625 2109.574219 1345.4375 2107.023438 1345.4375 2102.96875 C 1345.4375 2100.003906 1347.179688 2096.492188 1350.667969 2092.4375 C 1354.199219 2088.382812 1356.816406 2085.023438 1358.515625 2082.363281 C 1360.21875 2079.703125 1361.21875 2076.71875 1361.523438 2073.40625 C 1361.832031 2070.132812 1362.308594 2064.226562 1362.964844 2055.679688 C 1363.617188 2047.175781 1364.207031 2038.128906 1364.730469 2028.539062 C 1365.253906 2018.988281 1365.777344 2009.941406 1366.300781 2001.394531 C 1366.867188 1992.890625 1367.148438 1986.941406 1367.148438 1983.539062 C 1371.816406 1978.832031 1375.214844 1975.953125 1377.351562 1974.90625 C 1382.671875 1972.117188 1386.292969 1973.183594 1388.210938 1978.109375 L 1386.3125 2078.703125 C 1438.898438 2078.703125 1470.511719 2075.300781 1481.148438 2068.5 L 1481.148438 1967.582031 C 1482.414062 1963.960938 1488.363281 1962.152344 1499.003906 1962.152344 C 1501.359375 1962.152344 1503.277344 1962.261719 1504.761719 1962.480469 C 1504.761719 1966.492188 1504.914062 1972.59375 1505.21875 1980.792969 C 1505.566406 1988.988281 1505.894531 1998.320312 1506.199219 2008.785156 C 1506.503906 2019.207031 1506.875 2030.214844 1507.3125 2041.8125 C 1507.746094 2053.414062 1508.183594 2064.421875 1508.617188 2074.84375 C 1509.230469 2096.558594 1509.753906 2112.539062 1510.1875 2122.785156 C 1511.671875 2148.335938 1516.882812 2168.980469 1525.820312 2184.722656 C 1516.269531 2188.558594 1505.742188 2190.476562 1494.230469 2190.476562 C 1484.417969 2166.191406 1479.207031 2134.359375 1478.597656 2094.988281 C 1464.515625 2094.550781 1454.921875 2094.332031 1449.820312 2094.332031 C 1444.71875 2094.332031 1438.984375 2094.660156 1432.621094 2095.316406 C 1419.40625 2096.144531 1404.605469 2099.542969 1388.210938 2105.519531 Z M 1712.023438 2078.703125 L 1720.984375 2078.703125 C 1724.605469 2078.703125 1728.050781 2079.027344 1731.320312 2079.683594 C 1734.632812 2080.292969 1736.289062 2082.625 1736.289062 2086.679688 C 1737.773438 2095.183594 1732.78125 2099.328125 1721.3125 2099.109375 C 1718.085938 2098.933594 1715.144531 2098.738281 1712.484375 2098.519531 C 1709.824219 2098.300781 1707.644531 2098.234375 1705.941406 2098.324219 C 1704.242188 2098.453125 1703.5 2099.042969 1703.71875 2100.089844 C 1705.855469 2106.28125 1708.144531 2113.191406 1710.585938 2120.824219 C 1713.027344 2128.496094 1715.753906 2136.171875 1718.761719 2143.84375 C 1726.390625 2162.8125 1733.628906 2176.4375 1740.476562 2184.722656 C 1736.855469 2189.214844 1732.648438 2192.941406 1727.851562 2195.90625 C 1723.054688 2198.871094 1720.503906 2200.355469 1720.199219 2200.355469 C 1719.851562 2200.355469 1719.566406 2200.246094 1719.351562 2200.027344 L 1674.351562 2105.191406 L 1587.167969 2126.578125 L 1583.964844 2139.984375 C 1577.773438 2164.492188 1570.863281 2181.539062 1563.230469 2191.132812 C 1561.921875 2193.222656 1559.261719 2193.421875 1555.25 2191.71875 C 1548.40625 2189.191406 1544.984375 2187.078125 1544.984375 2185.375 C 1544.984375 2184.941406 1547.230469 2178.769531 1551.71875 2166.867188 C 1556.167969 2154.917969 1560.679688 2142.820312 1565.257812 2130.566406 C 1569.835938 2118.359375 1574.632812 2105.539062 1579.648438 2092.109375 C 1584.660156 2078.679688 1589.390625 2065.90625 1593.839844 2053.785156 C 1598.332031 2041.660156 1602.386719 2030.761719 1606.003906 2021.082031 C 1609.625 2011.359375 1612.175781 2004.316406 1613.65625 1999.957031 C 1615.140625 1995.59375 1616.164062 1991.757812 1616.730469 1988.445312 C 1617.253906 1985.175781 1618.039062 1982.363281 1619.085938 1980.007812 C 1621.222656 1975.125 1626.542969 1972.683594 1635.042969 1972.683594 C 1644.199219 1977.785156 1651.285156 1984.433594 1656.300781 1992.628906 C 1661.316406 2000.828125 1665.566406 2009.613281 1669.054688 2018.988281 C 1672.585938 2028.363281 1676.054688 2037.824219 1679.453125 2047.375 C 1682.855469 2056.964844 1687.433594 2065.707031 1693.1875 2073.601562 C 1695.105469 2076.566406 1697.984375 2078.15625 1701.820312 2078.375 C 1705.660156 2078.59375 1709.058594 2078.703125 1712.023438 2078.703125 Z M 1632.167969 2009.699219 C 1630.464844 2022.695312 1626.652344 2036.015625 1620.722656 2049.664062 C 1614.746094 2063.265625 1609.953125 2073.839844 1606.332031 2081.382812 C 1602.714844 2088.96875 1599.617188 2095.945312 1597.042969 2102.3125 C 1611.519531 2102.3125 1629.3125 2098.0625 1650.414062 2089.558594 C 1655.734375 2087.203125 1660.835938 2085.066406 1665.71875 2083.148438 C 1655.734375 2040.375 1644.550781 2015.890625 1632.167969 2009.699219 Z M 1783.902344 2005.90625 C 1795.589844 1994.613281 1816.757812 1988.96875 1847.410156 1988.96875 C 1866.597656 1988.96875 1882.6875 1990.886719 1895.679688 1994.722656 C 1908.671875 1998.558594 1918.394531 2002.59375 1924.847656 2006.824219 C 1931.347656 2011.097656 1934.59375 2015.785156 1934.59375 2020.886719 C 1934.59375 2032.613281 1920.96875 2044.210938 1893.71875 2055.679688 C 1889.707031 2057.597656 1879.132812 2061.5 1861.996094 2067.386719 C 1844.816406 2073.230469 1833.261719 2077.21875 1827.332031 2079.355469 C 1814.339844 2084.238281 1805.707031 2088.054688 1801.433594 2090.800781 C 1801.433594 2091.890625 1801.867188 2092.808594 1802.742188 2093.550781 C 1803.570312 2094.289062 1805.597656 2095.578125 1808.824219 2097.40625 C 1812.007812 2099.195312 1816.78125 2101.746094 1823.144531 2105.058594 C 1829.554688 2108.332031 1838.40625 2113.0625 1849.699219 2119.253906 C 1883.316406 2137.566406 1917.894531 2157.144531 1953.429688 2177.984375 C 1955.175781 2179.292969 1957.421875 2181.058594 1960.167969 2183.28125 C 1962.914062 2185.507812 1964.289062 2187.949219 1964.289062 2190.609375 C 1964.289062 2193.269531 1963.4375 2195.144531 1961.738281 2196.234375 C 1960.035156 2197.28125 1958.03125 2198.0625 1955.71875 2198.585938 C 1953.367188 2199.15625 1950.902344 2199.4375 1948.328125 2199.4375 L 1941.984375 2199.4375 C 1937.710938 2199.4375 1928.816406 2194.859375 1915.300781 2185.703125 C 1901.785156 2176.546875 1890.078125 2168.546875 1880.179688 2161.699219 C 1870.28125 2154.898438 1860.207031 2148.3125 1849.960938 2141.949219 C 1825.9375 2126.382812 1806.882812 2116.265625 1792.800781 2111.601562 L 1792.800781 2184.722656 C 1792.800781 2188.996094 1789.179688 2191.132812 1781.941406 2191.132812 L 1778.476562 2191.132812 C 1773.984375 2191.132812 1770.671875 2188.886719 1768.535156 2184.394531 C 1765.570312 2177.59375 1764.085938 2165.035156 1764.085938 2146.722656 L 1765.066406 2082.496094 C 1765.066406 2051.015625 1763.671875 2023.347656 1760.882812 1999.496094 C 1765.984375 1990.777344 1772.261719 1991.105469 1779.71875 2000.480469 C 1781.417969 2002.570312 1782.8125 2004.382812 1783.902344 2005.90625 Z M 1891.820312 2009.699219 L 1871.085938 2009.375 C 1822.949219 2009.375 1795.261719 2014.910156 1788.023438 2025.988281 C 1785.886719 2028.996094 1784.820312 2032.789062 1784.820312 2037.367188 C 1784.820312 2041.945312 1785.039062 2045.933594 1785.472656 2049.335938 C 1786.5625 2058.054688 1789.003906 2064.335938 1792.800781 2068.171875 C 1793.453125 2068.390625 1794.585938 2068.5 1796.199219 2068.5 C 1797.769531 2068.5 1800.734375 2068.0625 1805.09375 2067.191406 C 1809.457031 2066.363281 1815.320312 2064.816406 1822.6875 2062.546875 C 1830.015625 2060.324219 1837.839844 2057.621094 1846.167969 2054.4375 C 1854.453125 2051.253906 1862.433594 2047.941406 1870.105469 2044.496094 C 1894.175781 2033.640625 1906.210938 2024.808594 1906.210938 2018.007812 C 1906.210938 2014.171875 1901.414062 2011.402344 1891.820312 2009.699219 Z M 2154.679688 2078.703125 L 2163.574219 2078.703125 C 2167.191406 2078.703125 2170.660156 2079.027344 2173.972656 2079.683594 C 2177.289062 2080.292969 2178.945312 2082.625 2178.945312 2086.679688 C 2180.425781 2095.183594 2175.414062 2099.328125 2163.902344 2099.109375 C 2160.71875 2098.933594 2157.796875 2098.738281 2155.136719 2098.519531 C 2152.476562 2098.300781 2150.296875 2098.234375 2148.597656 2098.324219 C 2146.894531 2098.453125 2146.15625 2099.042969 2146.371094 2100.089844 C 2148.507812 2106.28125 2150.796875 2113.191406 2153.242188 2120.824219 C 2155.683594 2128.496094 2158.386719 2136.171875 2161.351562 2143.84375 C 2169.023438 2162.8125 2176.261719 2176.4375 2183.066406 2184.722656 C 2179.445312 2189.214844 2175.238281 2192.941406 2170.441406 2195.90625 C 2165.644531 2198.871094 2163.09375 2200.355469 2162.789062 2200.355469 C 2162.484375 2200.355469 2162.222656 2200.246094 2162.003906 2200.027344 L 2116.941406 2105.191406 L 2029.757812 2126.578125 L 2026.617188 2139.984375 C 2020.425781 2164.492188 2013.492188 2181.539062 2005.820312 2191.132812 C 2004.554688 2193.222656 2001.894531 2193.421875 1997.839844 2191.71875 C 1991.039062 2189.191406 1987.636719 2187.078125 1987.636719 2185.375 C 1987.636719 2184.941406 1989.859375 2178.769531 1994.308594 2166.867188 C 1998.800781 2154.917969 2003.335938 2142.820312 2007.914062 2130.566406 C 2012.492188 2118.359375 2017.289062 2105.539062 2022.300781 2092.109375 C 2027.273438 2078.679688 2032.003906 2065.90625 2036.496094 2053.785156 C 2040.984375 2041.660156 2045.039062 2030.761719 2048.660156 2021.082031 C 2052.277344 2011.359375 2054.828125 2004.316406 2056.3125 1999.957031 C 2057.792969 1995.59375 2058.796875 1991.757812 2059.320312 1988.445312 C 2059.84375 1985.175781 2060.648438 1982.363281 2061.738281 1980.007812 C 2063.875 1975.125 2069.195312 1972.683594 2077.699219 1972.683594 C 2086.855469 1977.785156 2093.941406 1984.433594 2098.953125 1992.628906 C 2103.925781 2000.828125 2108.175781 2009.613281 2111.707031 2018.988281 C 2115.195312 2028.363281 2118.664062 2037.824219 2122.109375 2047.375 C 2125.507812 2056.964844 2130.085938 2065.707031 2135.84375 2073.601562 C 2137.71875 2076.566406 2140.574219 2078.15625 2144.410156 2078.375 C 2148.246094 2078.59375 2151.671875 2078.703125 2154.679688 2078.703125 Z M 2074.820312 2009.699219 C 2073.121094 2022.695312 2069.285156 2036.015625 2063.308594 2049.664062 C 2057.335938 2063.265625 2052.539062 2073.839844 2048.921875 2081.382812 C 2045.300781 2088.96875 2042.226562 2095.945312 2039.699219 2102.3125 C 2054.175781 2102.3125 2071.941406 2098.0625 2093.003906 2089.558594 C 2098.324219 2087.203125 2103.445312 2085.066406 2108.375 2083.148438 C 2098.34375 2040.375 2087.160156 2015.890625 2074.820312 2009.699219 Z M 2382.023438 1999.171875 L 2383.003906 2082.824219 C 2383.003906 2147.574219 2380.34375 2185.484375 2375.023438 2196.558594 L 2351.675781 2194.597656 C 2339.992188 2174.367188 2320.304688 2145.960938 2292.617188 2109.375 C 2281.757812 2094.902344 2270.945312 2080.511719 2260.175781 2066.210938 C 2249.449219 2051.953125 2239.617188 2037.804688 2230.679688 2023.761719 C 2226.40625 2042.730469 2224.269531 2080.621094 2224.269531 2137.433594 C 2224.269531 2159.148438 2223.855469 2177.460938 2223.027344 2192.375 C 2218.972656 2196.210938 2214.546875 2198.128906 2209.75 2198.128906 C 2204.953125 2198.128906 2201.59375 2197.648438 2199.675781 2196.691406 C 2197.757812 2195.730469 2196.800781 2194.140625 2196.800781 2191.917969 C 2196.800781 2189.691406 2197.0625 2186.183594 2197.585938 2181.386719 C 2198.152344 2176.589844 2198.804688 2168.546875 2199.546875 2157.253906 C 2200.289062 2145.960938 2200.964844 2134.035156 2201.574219 2121.476562 C 2203.273438 2088.6875 2204.125 2060.433594 2204.125 2036.710938 C 2204.125 2012.949219 2203.929688 1993.414062 2203.535156 1978.109375 C 2208.203125 1973.835938 2211.820312 1970.742188 2214.394531 1968.824219 C 2216.921875 1966.90625 2219.800781 1966.96875 2223.027344 1969.019531 C 2226.210938 1971.027344 2230.308594 1975.386719 2235.324219 1982.101562 C 2240.292969 1988.816406 2247.355469 1998.757812 2256.511719 2011.925781 C 2287.820312 2056.441406 2318.582031 2098.171875 2348.796875 2137.109375 L 2354.878906 1978.109375 C 2357.234375 1973.835938 2359.589844 1970.917969 2361.945312 1969.347656 C 2364.253906 1967.734375 2367.328125 1966.925781 2371.167969 1966.925781 C 2378.621094 1966.925781 2382.351562 1973.730469 2382.351562 1987.332031 Z M 2382.023438 1999.171875 "/>
</g>
<g clip-path="url(#clip3)" clip-rule="nonzero">
<path style=" stroke:none;fill-rule:nonzero;fill:rgb(0%,50.196078%,100%);fill-opacity:1;" d="M 1946.320312 1022.777344 C 2348.277344 1022.777344 2674.128906 1348.632812 2674.128906 1750.589844 C 2674.128906 2152.546875 2348.277344 2478.398438 1946.320312 2478.398438 C 1744.476562 2478.398438 1561.820312 2396.234375 1429.984375 2263.53125 L 1464.582031 2263.53125 C 1590.480469 2381.816406 1759.9375 2454.273438 1946.320312 2454.273438 C 2334.957031 2454.273438 2650.003906 2139.226562 2650.003906 1750.589844 C 2650.003906 1361.953125 2334.957031 1046.902344 1946.320312 1046.902344 C 1759.9375 1046.902344 1590.480469 1119.359375 1464.582031 1237.648438 L 1429.984375 1237.648438 C 1561.828125 1104.9375 1744.476562 1022.777344 1946.320312 1022.777344 Z M 1946.320312 1022.777344 "/>
</g>
<g clip-path="url(#clip4)" clip-rule="nonzero">
<path style="fill:none;stroke-width:1;stroke-linecap:butt;stroke-linejoin:miter;stroke:rgb(100%,100%,100%);stroke-opacity:1;stroke-miterlimit:4;" d="M 231.340114 -0.0000737085 C 299.602183 -0.0000737085 354.939694 55.338101 354.939694 123.60017 C 354.939694 191.862239 299.602183 247.19975 231.340114 247.19975 C 197.062142 247.19975 166.042673 233.246296 143.653728 210.710082 L 149.529251 210.710082 C 170.909864 230.797775 199.687784 243.102739 231.340114 243.102739 C 297.34007 243.102739 350.842683 189.600126 350.842683 123.60017 C 350.842683 57.600214 297.34007 4.096937 231.340114 4.096937 C 199.687784 4.096937 170.909864 16.401901 149.529251 36.490258 L 143.653728 36.490258 C 166.044 13.952717 197.062142 -0.0000737085 231.340114 -0.0000737085 Z M 231.340114 -0.0000737085 " transform="matrix(5.888439,0,0,5.888439,584.088153,1022.777778)"/>
</g>
</g>
</svg>
